<svg width="276" height="276" viewBox="0 0 276 276" fill="none" xmlns="http://www.w3.org/2000/svg">
<path d="M138 10C154.807 9.99791 171.45 13.3065 186.979 19.7363C202.507 26.1662 216.617 35.5917 228.503 47.4746C240.389 59.3575 249.818 73.4653 256.252 88.9922C262.686 104.519 265.998 121.161 266 137.968C266.006 163.285 258.504 188.036 244.443 209.09C230.382 230.143 210.394 246.554 187.006 256.247C163.617 265.94 137.88 268.479 113.048 263.544C88.2163 258.609 65.4062 246.42 47.502 228.521C29.5977 210.621 17.4034 187.814 12.4619 162.983C7.52042 138.153 10.0532 112.414 19.7402 89.0234C29.4273 65.6328 45.8337 45.6404 66.8838 31.5742C87.934 17.508 112.683 10 138 10ZM147.312 43.9863C137.603 43.2485 127.855 44.7884 118.846 48.4834C110.495 51.8581 103.442 57.8156 98.7188 65.4844C93.9754 73.1168 91.2885 81.8474 90.9199 90.8262C90.4479 98.7168 91.9383 106.601 95.2578 113.775C98.7901 121.018 104.171 127.201 110.855 131.701C116.342 135.593 126.044 139.973 139.961 144.843C153.878 149.712 162.851 153.215 166.881 155.353C173.164 158.638 177.604 162.492 180.198 166.915C182.84 171.53 184.055 176.825 183.69 182.13C183.467 187.602 181.71 192.902 178.619 197.424C178.236 197.982 177.822 198.524 177.407 199.019C177.673 197.562 177.747 196.077 177.63 194.601C176.29 178.557 152.113 167.489 123.519 169.85C118.778 170.25 114.074 171.017 109.452 172.146C104.269 166.819 89.5163 155.225 58.832 154.715L78.3691 177.553L54.5898 172.13C54.5898 172.13 72.3725 191.905 88.5439 200.342C93.115 209.805 100.399 217.695 109.468 223.005C118.643 228.321 130.174 231.42 144.06 232.303C154.324 233.092 164.62 231.253 173.978 226.96C182.752 223.013 190.145 216.531 195.205 208.349C200.234 200.229 203.094 190.954 203.514 181.412C204.102 172.346 202.304 163.283 198.299 155.129C193.947 146.916 187.391 140.079 179.368 135.386C173.393 131.696 162.229 127.145 145.877 121.733C129.525 116.322 119.515 111.383 115.847 106.918C112.019 102.321 110.147 96.4057 110.632 90.4434C110.755 86.8272 111.651 83.2797 113.261 80.0391C114.87 76.7984 117.155 73.9395 119.962 71.6562C127.81 64.8686 138.009 61.4329 148.365 62.0879C153.904 62.4767 159.291 64.0651 164.154 66.7441C167.216 82.5807 179.305 81.4173 181.697 81.0186H198.044C197.262 78.7858 191.329 60.2856 177.104 52.3115C167.948 47.2769 157.752 44.4274 147.312 43.9863ZM179.177 86.8389L196.257 110.649L198.282 86.2969L179.177 86.8389ZM186.099 69.0088C186.982 69.0088 187.845 69.2712 188.579 69.7617C189.313 70.2524 189.887 70.9497 190.225 71.7656C190.563 72.5815 190.651 73.4795 190.479 74.3457C190.306 75.2119 189.88 76.0073 189.256 76.6318C188.631 77.2563 187.836 77.6822 186.97 77.8545C186.104 78.0267 185.206 77.9385 184.39 77.6006C183.574 77.2626 182.876 76.6894 182.386 75.9551C181.895 75.2208 181.633 74.3577 181.633 73.4746C181.633 72.2903 182.104 71.1548 182.941 70.3174C183.779 69.48 184.914 69.0088 186.099 69.0088Z" fill="black"/>
</svg>
